<svg xmlns="http://www.w3.org/2000/svg" width="900" height="560" viewBox="0 0 900 560"><rect width="100%" height="100%" fill="white"/><text x="40" y="35" font-family="sans-serif" font-size="20" font-weight="700">Huerta Vieja · secuencia de hitos ANA · REVIEW_ONLY</text><text x="40" y="55" font-family="sans-serif" font-size="12">EPSG:32718 → EPSG:4326 · 18 hitos · faja marginal parcial; NO es cuenca ni mancha de peligro</text><polyline points="620,70 724,94 782,123 805,132 788,145 777,154 648,192 576,209 480,227 484,248 514,266 574,283 565,301 494,324 357,357 250,391 144,419 70,450" fill="none" stroke="black" stroke-width="2" stroke-dasharray="6 4"/><g fill="white" stroke="black"><circle cx="620" cy="70" r="4"/><circle cx="724" cy="94" r="4"/><circle cx="782" cy="123" r="4"/><circle cx="805" cy="132" r="4"/><circle cx="788" cy="145" r="4"/><circle cx="777" cy="154" r="4"/><circle cx="648" cy="192" r="4"/><circle cx="576" cy="209" r="4"/><circle cx="480" cy="227" r="4"/><circle cx="484" cy="248" r="4"/><circle cx="514" cy="266" r="4"/><circle cx="574" cy="283" r="4"/><circle cx="565" cy="301" r="4"/><circle cx="494" cy="324" r="4"/><circle cx="357" cy="357" r="4"/><circle cx="250" cy="391" r="4"/><circle cx="144" cy="419" r="4"/><circle cx="70" cy="450" r="4"/></g><text x="40" y="525" font-family="sans-serif" font-size="11">Fuente: ANA IT N° 016-2024/P_ALACHRL_30/JEAC; acto aprobatorio RD N° 0690-2025-ANA-AAA.CF.</text><text x="40" y="542" font-family="sans-serif" font-size="11">Representación de control para revisión; apagada por defecto y sin valores de alerta.</text></svg>
